# xmcd CD database file
#
# Track frame offsets:
#	180
#	25390
#	37986
#	69945
#	86424
#	96949
#	109591
#	126741
#	148155
#	161740
#	176797
#	210726
#	231040
#	251324
#
# Disc length: 3559 seconds
#
# Revision: 0
# Processed by: cddbd v1.4PL0 Copyright (c) Steve Scherf et al.
# Submitted via: CDex 1.51
#
DISCID=c20de50e
DTITLE=Bruno Heuzé - Eurasie
DYEAR=1993
DGENRE=New Age
TTITLE0=Garuda's flight
TTITLE1=Golden triangle strawberries
TTITLE2=To the Highest Buddha
TTITLE3=Halong Bay
TTITLE4=Têt in Saïgon
TTITLE5=Samosir
TTITLE6=Toba's night virtual faces
TTITLE7=Thousands bells in Borobudur
TTITLE8=Bromo Nebulae
TTITLE9=Mia Jima no torii
TTITLE10=Rising sirens (Batur 1)
TTITLE11=Dawn mysts on Batur Lake (Batur 2)
TTITLE12=The Gates of Purakehen (Batur 3)
TTITLE13=Celestial Luullaby (Batur 4)
EXTD=YEAR: 1993
EXTT0=
EXTT1=
EXTT2=
EXTT3=
EXTT4=
EXTT5=
EXTT6=
EXTT7=
EXTT8=
EXTT9=
EXTT10=
EXTT11=
EXTT12=
EXTT13=
PLAYORDER=
